<svg xmlns="http://www.w3.org/2000/svg" viewBox="0 0 591.42 534.57"><defs><style>.cls-1{fill:#29a475;}.cls-2{fill:#44ba8a;}.cls-3,.cls-4{fill:none;}.cls-3{stroke:#212121;stroke-width:6px;}.cls-3,.cls-4,.cls-9{stroke-miterlimit:10;}.cls-4,.cls-9{stroke:#fff;stroke-linecap:round;stroke-width:3.5px;opacity:0.5;}.cls-5{fill:#dfd8c3;}.cls-6{fill:#f2efce;}.cls-7{fill:#da506e;}.cls-8,.cls-9{fill:#f05978;}</style></defs><g id="Layer_2" data-name="Layer 2"><g id="ThirdPhase"><path class="cls-1" d="M420.8,531.57c-5.5,0-9-4.39-7.84-9.76l30-135.94a13.06,13.06,0,0,1,12.16-9.76h14.78a13,13,0,0,1,12.15,9.76l30.05,135.94c1.18,5.37-2.34,9.76-7.84,9.76H489.38a13.06,13.06,0,0,1-12.15-9.77l-2.07-9.43A13,13,0,0,0,463,502.6h-.92a13,13,0,0,0-12.15,9.77l-2.07,9.43a13.06,13.06,0,0,1-12.15,9.77ZM457.92,453c-1.23,5.36.83,9.75,4.56,9.75s5.79-4.39,4.56-9.75l-2.33-10.2c-1.23-5.36-3.23-5.36-4.46,0Z" transform="translate(-4.15)"/><path class="cls-2" d="M423.62,522c-5.5,0-9-4.39-7.85-9.76L443.5,386.74A13.06,13.06,0,0,1,455.66,377h14.78a13,13,0,0,1,12.15,9.76l27.79,125.72c1.19,5.37-2.34,9.75-7.84,9.74l-14.92,0c-5.5,0-10.93-4.22-12.06-9.36s-6.55-9.34-12.05-9.34h-.92c-5.5,0-10.92,4.16-12,9.25S444,522,438.52,522Zm34.8-68.08c-1.23,5.36.83,9.75,4.56,9.75s5.79-4.39,4.56-9.75l-2.33-10.2c-1.23-5.36-3.23-5.36-4.46,0Z" transform="translate(-4.15)"/><path class="cls-3" d="M420.8,531.57c-5.5,0-9-4.39-7.84-9.76l30-135.94a13.06,13.06,0,0,1,12.16-9.76h14.78a13,13,0,0,1,12.15,9.76l30.05,135.94c1.18,5.37-2.34,9.76-7.84,9.76H489.38a13.06,13.06,0,0,1-12.15-9.77l-2.07-9.43A13,13,0,0,0,463,502.6h-.92a13,13,0,0,0-12.15,9.77l-2.07,9.43a13.06,13.06,0,0,1-12.15,9.77ZM457.92,453c-1.23,5.36.83,9.75,4.56,9.75s5.79-4.39,4.56-9.75l-2.33-10.2c-1.23-5.36-3.23-5.36-4.46,0Z" transform="translate(-4.15)"/><path class="cls-4" d="M454.76,384.47l6.37-.13c10.47-.21,12.77,1.31,14.13,6.93L481,414.58" transform="translate(-4.15)"/><path class="cls-1" d="M296.87,531.57a10,10,0,0,1-10-10V386.11a10,10,0,0,1,10-10H381.1a10,10,0,0,1,10,10v22a10,10,0,0,1-10,10H345.85c-5.5,0-10,3.15-10,7s4.5,7,10,7h27.56a10,10,0,0,1,10,10v23.45a10,10,0,0,1-10,10H345.85c-5.5,0-10,3.15-10,7s4.5,7,10,7H381.1a10,10,0,0,1,10,10v22a10,10,0,0,1-10,10Z" transform="translate(-4.15)"/><path class="cls-2" d="M300.28,521.86a10.07,10.07,0,0,1-10-10l-.55-125.12a10,10,0,0,1,10-10h78.3a10,10,0,0,1,10,10v22a10,10,0,0,1-10,10H345.83c-5.5,0-10,3.15-10,7s4.5,7,10,7h24.85a10,10,0,0,1,10,10v23.46a10,10,0,0,1-10,10H345.83c-5.5,0-10,3.15-10,7s4.5,7,10,7h32.11a10,10,0,0,1,10,10v11.49a10,10,0,0,1-10,10Z" transform="translate(-4.15)"/><path class="cls-3" d="M296.87,531.57a10,10,0,0,1-10-10V386.76a10,10,0,0,1,10-10H381.1a10,10,0,0,1,10,10v21.83a10,10,0,0,1-10,10H345.85c-5.5,0-10,3.13-10,7s4.5,7,10,7h27.56a10,10,0,0,1,10,10V465.8a10,10,0,0,1-10,10H345.85c-5.5,0-10,3.14-10,7s4.5,7,10,7H381.1a10,10,0,0,1,10,10v21.83a10,10,0,0,1-10,10Z" transform="translate(-4.15)"/><path class="cls-4" d="M336.9,385.19l32.16,0c10.25,0,11,2.09,11,7.07v14.64" transform="translate(-4.15)"/><path class="cls-1" d="M259.69,347.23q-8.79-25.82-24.87-37.55c-10.72-7.82-28.06-10.31-28.06-10.31a169.75,169.75,0,0,0-19.9-1.42H133.68a10,10,0,0,0-10,10v212.5a10,10,0,0,0,10,10h53.18a169.75,169.75,0,0,0,19.9-1.42s17.73-2.55,28.38-10.49S254,498.2,259.8,481.35s8.68-38.75,8.68-65.71Q268.48,373.06,259.69,347.23ZM203,431.09q-1.56,6-4.45,8l-1.93,1.37c-2.74.38-5.88.69-7,.69s-2-4.5-2-10v-34c0-5.5.91-10,2-10s4.38.26,7.29.59l1.9,1.16q2.83,1.76,4.29,7.42t1.44,17.2Q204.54,425.13,203,431.09Z" transform="translate(-4.15)"/><path class="cls-2" d="M260.22,345.35q-8.79-24.18-24.87-35.18c-10.73-7.33-28-9.66-28-9.66a179.1,179.1,0,0,0-19.91-1.34H134.21a10,10,0,0,0-10,10V507a10,10,0,0,0,10,10h53.18a181.53,181.53,0,0,0,19.91-1.33s17.72-2.39,28.37-9.83,18.87-19.06,24.66-34.85S269,434.72,269,409.46Q269,369.55,260.22,345.35Zm-56.71,78.59c-1,3.73-1.78,14.33-3.71,15.61a9.68,9.68,0,0,1-2.42,1.38c-5.43.92-9.72-.4-9.55-2.93s.25-9.1.17-14.6l-.34-23.66c-.08-5.5,1.08-10.24,2.56-10.53a21.79,21.79,0,0,1,7.27.56l1.9,1.09c1.89,1.1,1.81.75,2.78,4.29s2.9,5.17,2.9,12.38S204.55,420.21,203.51,423.94Z" transform="translate(-4.15)"/><path class="cls-3" d="M259.69,348.43q-8.79-25.8-24.87-37.53c-10.72-7.82-28.06-10.31-28.06-10.31a169.75,169.75,0,0,0-19.9-1.42H133.68a10,10,0,0,0-10,10v212.4a10,10,0,0,0,10,10h53.18a169.75,169.75,0,0,0,19.9-1.42s17.73-2.55,28.38-10.49S254,499.33,259.8,482.49s8.68-38.73,8.68-65.68Q268.48,374.24,259.69,348.43ZM203,432.26q-1.56,6-4.45,8l-1.93,1.37c-2.74.38-5.88.69-7,.69s-2-4.5-2-10v-34c0-5.5.91-10,2-10s4.38.27,7.29.59l1.9,1.16q2.83,1.75,4.29,7.42t1.44,17.19Q204.54,426.29,203,432.26Z" transform="translate(-4.15)"/><path class="cls-4" d="M191.34,311.37a55.38,55.38,0,0,1,23.34,4.26,58.54,58.54,0,0,1,18.12,12.42c9.28,9.29,12.69,19.35,16.38,30a122.08,122.08,0,0,1,5.4,22" transform="translate(-4.15)"/><rect class="cls-1" x="7.21" y="507.2" width="88.67" height="22.65" rx="10"/><rect class="cls-2" x="10.13" y="376.65" width="82.85" height="145.23" rx="10"/><path class="cls-3" d="M21.35,531.57a10,10,0,0,1-10-10V386.11a10,10,0,0,1,10-10H90a10,10,0,0,1,10,10V521.57a10,10,0,0,1-10,10Z" transform="translate(-4.15)"/><path class="cls-4" d="M46.2,383.22l32.17,0c10.25,0,11,2.43,11,8.23v44.88" transform="translate(-4.15)"/><path class="cls-5" d="M447.27,356.57a10,10,0,0,1-10-10V231.87a10,10,0,0,1,10-10h57.62c5.5,0,14.47.45,20,1,0,0,11.7,1.18,19.42,5.58a41.93,41.93,0,0,1,17.26,18,57.14,57.14,0,0,1,5.69,25.84A40.48,40.48,0,0,1,560,296.12a56.76,56.76,0,0,1-9.49,10.64c-4.27,3.47-6.51,7.23-5,8.36l.86,1.18.85,1.19c.71,1.36,2.25,6.87,3.42,12.24l40.24,184.75c1.17,5.38-2.37,9.68-7.87,9.57l-30.79-.62a13.52,13.52,0,0,1-12.23-10l-40.5-177.06c-1.22-5.37-2.9-11-3.73-12.58l-.85-.62-.86-.63c-1.53-.17-3.27-.31-3.86-.31s-1.07,4.5-1.07,10v14.3a10,10,0,0,1-10,10Zm41.89-83.84c0,5.5,2.84,10,6.32,10a76,76,0,0,0,16-2.65s3-.83,3-7.8q0-5.86-2.9-8.37l-1.93-1.67c-3.83-.46-10-.84-13.72-.84s-6.75,4.5-6.75,10Z" transform="translate(-4.15)"/><path class="cls-6" d="M448.94,348.21a10.08,10.08,0,0,1-10-10V231a10,10,0,0,1,10-10h55.14c5.5,0,14.48.47,19.95,1,0,0,11,1.15,18.49,5.54a41.35,41.35,0,0,1,16.71,18,58.68,58.68,0,0,1,5.5,25.81,41.44,41.44,0,0,1-7,23.83,55.62,55.62,0,0,1-9,10.51c-4.22,3.53-6.46,7.34-5,8.47l.83,1.18.83,1.19a88.12,88.12,0,0,1,3.45,12.22L588.78,505a8,8,0,0,1-7.78,10.1l-29.25,1a12.69,12.69,0,0,1-12.27-9.38L499.34,335.42c-1.25-5.36-2.93-11-3.73-12.56l-.83-.63-.83-.63a20.26,20.26,0,0,0-4.83.07c-1.17.21-2.11,4.88-2.09,10.38l0,6.33a9.91,9.91,0,0,1-9.95,9.95Zm38.89-76.42c0,5.5,2.85,10,6.33,10s10.66-1.2,16-2.66c0,0,3-.82,3-7.79q0-5.85-2.9-8.36l-1.93-1.67c-3.83-.46-10-.84-13.72-.84s-6.76,4.5-6.76,10Z" transform="translate(-4.15)"/><path class="cls-3" d="M447.27,356.57a10,10,0,0,1-10-10V231.87a10,10,0,0,1,10-10h57.62c5.5,0,14.47.45,20,1,0,0,11.7,1.18,19.42,5.58a41.93,41.93,0,0,1,17.26,18,57.14,57.14,0,0,1,5.69,25.84A40.48,40.48,0,0,1,560,296.12a56.76,56.76,0,0,1-9.49,10.64c-4.27,3.47-6.51,7.23-5,8.36l.86,1.18.85,1.19c.71,1.36,2.27,6.87,3.46,12.24L592.34,517c1.19,5.37-2.33,9.76-7.83,9.76H553.08A13.17,13.17,0,0,1,540.85,517L499.53,336.41c-1.22-5.37-2.9-11-3.73-12.58l-.85-.62-.86-.63c-1.53-.17-3.27-.31-3.86-.31s-1.07,4.5-1.07,10v14.3a10,10,0,0,1-10,10Zm41.89-83.84c0,5.5,2.84,10,6.32,10a76,76,0,0,0,16-2.65s3-.83,3-7.8q0-5.86-2.9-8.37l-1.93-1.67c-3.83-.46-10-.84-13.72-.84s-6.75,4.5-6.75,10Z" transform="translate(-4.15)"/><path class="cls-5" d="M354,358a79.2,79.2,0,0,1-31.34-5.93,50,50,0,0,1-22.08-17.6c-5.42-7.77-6.84-18.75-6.84-18.75a189.39,189.39,0,0,1-1.28-19.92V233.36a10,10,0,0,1,10-10h26.25a10,10,0,0,1,10,10v56.32a86.11,86.11,0,0,0,2.75,19.62s2.34,8.18,12.54,8.18,12.53-8.18,12.53-8.18a85.57,85.57,0,0,0,2.76-19.62V233.36a10,10,0,0,1,10-10h26.25a10,10,0,0,1,10,10v62.45a186.75,186.75,0,0,1-1.29,19.92s-1.42,11-6.84,18.75a50,50,0,0,1-22.07,17.6A79.27,79.27,0,0,1,354,358Z" transform="translate(-4.15)"/><path class="cls-6" d="M354,345.7a85.75,85.75,0,0,1-31.34-5.43q-14-5.43-22.08-16.12c-5.42-7.12-6.72-16.35-6.72-16.35a172.07,172.07,0,0,1-1.4-19.9V168.18a10,10,0,0,1,10-10H328a10.1,10.1,0,0,1,10.06,10l.61,114.1A104.82,104.82,0,0,0,341.07,302s2.76,11.54,13,11.54S367,302,367,302a102.33,102.33,0,0,0,2.33-19.73v-49.9a10,10,0,0,1,10-10h26.25a10,10,0,0,1,10,10V287.9a169.89,169.89,0,0,1-1.41,19.9s-1.3,9.23-6.72,16.35-12.77,12.5-22.07,16.12A85.82,85.82,0,0,1,354,345.7Z" transform="translate(-4.15)"/><path class="cls-3" d="M354,357.21a79.38,79.38,0,0,1-31.34-5.93,50.11,50.11,0,0,1-22.08-17.6c-5.42-7.78-6.84-18.76-6.84-18.76A189.2,189.2,0,0,1,292.49,295V165.84a10,10,0,0,1,10-10h26.58a10,10,0,0,1,10,10l-.29,123a85.44,85.44,0,0,0,2.73,19.61s2.34,8.18,12.54,8.18,12.53-8.18,12.53-8.18a85.48,85.48,0,0,0,2.76-19.61V232.55a10,10,0,0,1,10-10h26.25a10,10,0,0,1,10,10V295a186.56,186.56,0,0,1-1.29,19.91s-1.42,11-6.84,18.76a50.08,50.08,0,0,1-22.07,17.6A79.45,79.45,0,0,1,354,357.21Z" transform="translate(-4.15)"/><path class="cls-5" d="M266.33,203.16q-8.08-11.49-23.25-16.63t-36.66-5.15q-21.48,0-36.65,5.15t-23.25,16.63q-8.09,11.47-8.08,30.8,0,19.15,8.08,30.72t23.25,16.71q15.16,5.14,36.65,5.14t36.66-5.14q15.16-5.14,23.25-16.71T274.41,234Q274.41,214.64,266.33,203.16Zm-53.47,46.4c-1.28,3-3.42,4.51-6.44,4.51s-5.16-1.5-6.44-4.51-1.92-8.21-1.92-15.6.64-12.59,1.92-15.6,3.43-4.51,6.44-4.51,5.16,1.5,6.44,4.51,1.92,8.21,1.92,15.6S214.14,246.55,212.86,249.56Z" transform="translate(-4.15)"/><path class="cls-6" d="M266.23,201.2q-8.07-10.53-23.23-15.26t-36.63-4.72q-21.47,0-36.62,4.72T146.51,201.2q-8.07,10.53-8.07,28.25t8.07,28.18q8.07,10.61,23.24,15.33t36.62,4.72q21.47,0,36.63-4.72t23.23-15.33q8.07-10.59,8.08-28.18T266.23,201.2Zm-53.42,42.56c-1.28,2.76-2.94,8.57-5.95,8.57s-5.64-5.81-6.92-8.57S198,236.23,198,229.45s.64-11.55,1.92-14.31,3.91-2.25,6.92-2.25,4.67-.51,5.95,2.25,1.92,7.53,1.92,14.31S214.09,241,212.81,243.76Z" transform="translate(-4.15)"/><path class="cls-3" d="M266.33,203.16q-8.08-11.49-23.25-16.63t-36.66-5.15q-21.48,0-36.65,5.15t-23.25,16.63q-8.09,11.47-8.08,30.8,0,19.15,8.08,30.72t23.25,16.71q15.16,5.14,36.65,5.14t36.66-5.14q15.16-5.14,23.25-16.71T274.41,234Q274.41,214.64,266.33,203.16Zm-53.47,46.4c-1.28,3-3.42,4.51-6.44,4.51s-5.16-1.5-6.44-4.51-1.92-8.21-1.92-15.6.64-12.59,1.92-15.6,3.43-4.51,6.44-4.51,5.16,1.5,6.44,4.51,1.92,8.21,1.92,15.6S214.14,246.55,212.86,249.56Z" transform="translate(-4.15)"/><path class="cls-5" d="M50.7,358a10,10,0,0,1-10-10V315.08a63.6,63.6,0,0,0-3.64-19.31L10.64,228.29c-2-5.12.82-9.9,6.27-10.62l17.77-2.35a13.26,13.26,0,0,1,13.45,8l9.82,26c1.94,5.14,5.4,5.25,7.67.25l26.27-57.83c2.28-5,8.64-9.1,14.14-9.1h23.29c5.5,0,8.1,4.07,5.77,9.06L86.49,296a53.87,53.87,0,0,0-4.22,19.06V348a10,10,0,0,1-10,10Z" transform="translate(-4.15)"/><path class="cls-6" d="M54.09,341a11.22,11.22,0,0,1-10.91-10l-1.71-18.69a82.56,82.56,0,0,0-4.61-19.24L8.8,222.8c-2-5.1.78-9.47,6.28-9.7l17.66-.74a15.26,15.26,0,0,1,13.76,8.85L57,247.1c2.07,5.09,5.59,5.15,7.82.13L90.29,190c2.23-5,8.56-9.14,14.06-9.14h22.08c5.5,0,8.13,4.1,5.85,9.1L85.13,293.3a57.55,57.55,0,0,0-4.35,19.09l-.37,18.68a10.25,10.25,0,0,1-10.2,10Z" transform="translate(-4.15)"/><path class="cls-3" d="M50.68,357.32a10,10,0,0,1-10-10V314.39A63.43,63.43,0,0,0,37,295.07L8,220.93c-2-5.12.85-9.4,6.35-9.5l19.3-.35a15.26,15.26,0,0,1,13.54,9.18l10.73,28.4c1.94,5.15,5.4,5.26,7.67.25l26.27-57.83c2.28-5,8.64-9.1,14.14-9.1H129.3c5.5,0,8.09,4.08,5.77,9.06L86.47,295.32a54,54,0,0,0-4.22,19.07v32.93a10,10,0,0,1-10,10Z" transform="translate(-4.15)"/><path class="cls-4" d="M102.15,191.37h18.66a2.34,2.34,0,0,1,2.06,3.42l-12.93,25.27" transform="translate(-4.15)"/><path class="cls-4" d="M210.63,191c3.49.12,27.26,1.22,41.71,13.92,8.13,7.15,9.45,14.58,9.7,18" transform="translate(-4.15)"/><path class="cls-4" d="M379,230.41h20.48c3.42,0,6.2,2.24,6.2,5v34.07" transform="translate(-4.15)"/><path class="cls-4" d="M489.16,230h17.1a64.57,64.57,0,0,1,26.94,6.29c13.35,6.5,17,15.84,19.28,19.64" transform="translate(-4.15)"/><path class="cls-7" d="M15.15,184.46a8,8,0,0,1-8-8V11.61a8,8,0,0,1,8-8H122.59a8,8,0,0,1,8,8V44.48a8,8,0,0,1-8,8H93.06a8,8,0,0,0-8,8v.28a8,8,0,0,0,8,8h21.8a8,8,0,0,1,8,8v34.55a8,8,0,0,1-8,8H93.06a8,8,0,0,0-8,8v49.15a8,8,0,0,1-8,8Z" transform="translate(-4.15)"/><path class="cls-8" d="M17.62,170.87a8,8,0,0,1-8-8V10.7a8,8,0,0,1,8-8H120.26a7.93,7.93,0,0,1,7.93,8l-.29,32.87a8.11,8.11,0,0,1-8.07,8h-28a8,8,0,0,0-8,8v.28a8,8,0,0,0,8,8h20a8,8,0,0,1,8,8v34.55a8,8,0,0,1-8,8h-20a8.22,8.22,0,0,0-8.16,8l-.76,36.48a8.23,8.23,0,0,1-8.17,8Z" transform="translate(-4.15)"/><path class="cls-3" d="M15.15,184.46a8,8,0,0,1-8-8V11.61a8,8,0,0,1,8-8H122.59a8,8,0,0,1,8,8V44.48a8,8,0,0,1-8,8H93.06a8,8,0,0,0-8,8v.28a8,8,0,0,0,8,8h21.8a8,8,0,0,1,8,8v34.55a8,8,0,0,1-8,8H93.06a8,8,0,0,0-8,8v49.15a8,8,0,0,1-8,8Z" transform="translate(-4.15)"/><path class="cls-4" d="M73.73,12.15h41.42a5,5,0,0,1,5.17,4.75V39.59" transform="translate(-4.15)"/><path class="cls-7" d="M226,163.79a10,10,0,0,1-10-10V13.61a10,10,0,0,1,10-10h31.24c5.5,0,12.15,4,14.77,8.79l18.35,33.84c2.62,4.84,4.77,4.29,4.77-1.21V13.61a10,10,0,0,1,10-10h26.58a9.66,9.66,0,0,1,9.69,10l-3.26,106.28a10.78,10.78,0,0,1-10.3,10.29l-27.43.82a14.18,14.18,0,0,1-13.09-9.22L278,93.11c-1.7-5.23-3.09-5-3.09.49v60.19a10,10,0,0,1-10,10Z" transform="translate(-4.15)"/><path class="cls-8" d="M228.58,151.7a10,10,0,0,1-10-9.94V14a10,10,0,0,1,10-10h29.26c5.5,0,12.08,4,14.62,8.87L290,46.53c2.54,4.87,4.62,4.36,4.62-1.14V14a10,10,0,0,1,10-10h24.79a9.87,9.87,0,0,1,9.87,10l-1.19,94.63A10.86,10.86,0,0,1,328,119.13l-30.78,1.63a13.73,13.73,0,0,1-13-9l-5.88-18.29c-1.68-5.24-3.25-5-3.48.47l-2,47.51a10.63,10.63,0,0,1-10.41,10Z" transform="translate(-4.15)"/><path class="cls-3" d="M226,163.79a10,10,0,0,1-10-10V13.61a10,10,0,0,1,10-10h31.24c5.5,0,12.15,4,14.77,8.79l18.35,33.84c2.62,4.84,4.77,4.29,4.77-1.21V13.61a10,10,0,0,1,10-10h26.58a9.79,9.79,0,0,1,9.8,10l-2.19,109a10.59,10.59,0,0,1-10.2,10.25l-29.55.75a13.75,13.75,0,0,1-12.79-9.35L277.67,93.2c-1.54-5.28-2.8-5.1-2.8.4v60.19a10,10,0,0,1-10,10Z" transform="translate(-4.15)"/><path class="cls-9" d="M304.7,11.18H327a3.5,3.5,0,0,1,3.72,3.22V52.74" transform="translate(-4.15)"/><path class="cls-7" d="M561.48,44.2Q554,22.36,540.29,12.41c-9.13-6.62-22.44-8.52-22.44-8.52A171.92,171.92,0,0,0,498,2.48H382.6a10,10,0,0,0-10,10V189.32a10,10,0,0,0,10,10H498a169.73,169.73,0,0,0,19.9-1.41s13.64-1.95,22.71-8.67,16.08-17.22,21-31.48S569,125,569,102.13Q569,66.06,561.48,44.2Zm-92.15,89.11c-.81-.05-1.28.05-1.52,1a2.28,2.28,0,0,1-2.32,1.59c-.61,0-1.23,0-1.84,0a2.57,2.57,0,0,1-2.68-2.14c-.08-.38-.23-.47-.57-.45a9,9,0,0,1-1,0,1.26,1.26,0,0,1-1.25-1.31,1.23,1.23,0,0,1,1.27-1.22h10c.94,0,1.51.49,1.5,1.28S470.28,133.36,469.33,133.31Zm1.8-6.3H457.84c-.89,0-1.46-1.29-1.45-3.16s.59-3.08,1.48-3.08H471.1c.89,0,1.47,1.22,1.48,3.08S472,127,471.13,127Zm12.54-37.38a21.86,21.86,0,0,1-2.7,6.65c-1.26,2.2-2.53,4.4-3.7,6.65a17.8,17.8,0,0,0-1.89,7.09c-.05.65-.15,1.3-.24,2a5.58,5.58,0,0,1-3.05,4.24,5.14,5.14,0,0,1-2.19.55l-1.87.08-3.73,0-3.39,0-1.69,0a5.83,5.83,0,0,1-5.54-4.58,6.62,6.62,0,0,1-.19-1.83,15.28,15.28,0,0,0-1.86-7.65c-1.12-2.26-2.48-4.39-3.61-6.64a33,33,0,0,1-2.49-5.69,17.91,17.91,0,0,1,.5-11.34A19.49,19.49,0,0,1,481.49,76,19.89,19.89,0,0,1,483.67,89.63Z" transform="translate(-4.15)"/><path class="cls-8" d="M562.11,44.72q-7.49-21.84-21.19-31.79c-9.14-6.62-22.44-8.52-22.44-8.52A171.92,171.92,0,0,0,498.58,3H383.23a9.94,9.94,0,0,0-9.93,10l1.15,162.81a10.12,10.12,0,0,0,10.07,10H499.84c5.5,0,14.47-.51,19.94-1.13,0,0,12.82-1.47,21.89-8.2s16.18-15.69,21.11-29.95,6.82-21.06,6.82-43.88Q569.6,66.57,562.11,44.72ZM470,133.83c-.81-.05-1.28.06-1.53,1a2.26,2.26,0,0,1-2.31,1.59c-.61,0-1.23,0-1.84,0a2.57,2.57,0,0,1-2.68-2.14c-.08-.38-.23-.47-.57-.45a7.22,7.22,0,0,1-1,0,1.26,1.26,0,0,1-1.25-1.3A1.24,1.24,0,0,1,460,131.3h10c.95,0,1.52.49,1.51,1.28S470.91,133.88,470,133.83Zm1.8-6.3q-6.64,0-13.29,0c-.89,0-1.46-1.29-1.46-3.16s.6-3.08,1.49-3.08c2.22,0,4.43,0,6.64,0s4.39,0,6.59,0c.89,0,1.47,1.22,1.48,3.08S472.64,127.53,471.76,127.53ZM484.3,90.15a21.86,21.86,0,0,1-2.7,6.65c-1.26,2.2-2.53,4.4-3.7,6.65a17.8,17.8,0,0,0-1.89,7.09c-.05.65-.15,1.3-.24,1.95a5.58,5.58,0,0,1-3,4.24,5.14,5.14,0,0,1-2.19.55l-1.87.08-3.73,0-3.39,0-1.69,0a5.83,5.83,0,0,1-5.54-4.57,6.7,6.7,0,0,1-.19-1.83,15.3,15.3,0,0,0-1.86-7.66c-1.12-2.26-2.48-4.39-3.62-6.64a33.69,33.69,0,0,1-2.48-5.69,17.91,17.91,0,0,1,.5-11.34,19.49,19.49,0,0,1,35.46-3.11A19.86,19.86,0,0,1,484.3,90.15Z" transform="translate(-4.15)"/><path class="cls-3" d="M561.84,44.72q-7.5-21.84-21.2-31.79c-9.13-6.62-22.43-8.52-22.43-8.52A172.08,172.08,0,0,0,498.31,3H383a10,10,0,0,0-10,10V189.85a10,10,0,0,0,10,10H498.31a169.9,169.9,0,0,0,19.9-1.42s13.63-2,22.71-8.67,16.07-17.22,21-31.48,7.4-32.81,7.4-55.63Q569.33,66.57,561.84,44.72Zm-92.16,89.11c-.8-.05-1.28.06-1.52,1a2.27,2.27,0,0,1-2.31,1.59c-.62,0-1.23,0-1.85,0a2.59,2.59,0,0,1-2.68-2.14c-.08-.37-.23-.47-.57-.45a9,9,0,0,1-1,0,1.27,1.27,0,0,1-1.25-1.31,1.24,1.24,0,0,1,1.27-1.23h10c.94,0,1.51.49,1.5,1.28S470.63,133.88,469.68,133.83Zm1.8-6.3q-6.64,0-13.28,0c-.89,0-1.47-1.29-1.46-3.16s.59-3.08,1.49-3.08c2.21,0,4.42,0,6.64,0s4.39,0,6.58,0c.89,0,1.48,1.22,1.49,3.08S472.37,127.53,471.48,127.53ZM484,90.15a21.61,21.61,0,0,1-2.7,6.65c-1.26,2.2-2.53,4.4-3.7,6.65a17.8,17.8,0,0,0-1.89,7.09c0,.65-.15,1.3-.24,1.95a5.55,5.55,0,0,1-3,4.24,5.22,5.22,0,0,1-2.2.55l-1.86.08-3.74,0-3.38,0-1.7,0a5.84,5.84,0,0,1-5.54-4.57,7.59,7.59,0,0,1-.19-1.83,15.3,15.3,0,0,0-1.86-7.66c-1.12-2.26-2.48-4.39-3.61-6.64a32.16,32.16,0,0,1-2.48-5.69,17.84,17.84,0,0,1,.5-11.34,19.48,19.48,0,0,1,35.45-3.11A19.8,19.8,0,0,1,484,90.15Z" transform="translate(-4.15)"/><path class="cls-9" d="M481.85,14.78l28.14.13c8.38,0,16.56,3.44,23.35,9.81a66.14,66.14,0,0,1,20.09,35.51,69,69,0,0,1,1.31,11.91" transform="translate(-4.15)"/><path class="cls-8" d="M161.37,137.43a5.31,5.31,0,0,1,7.29.3,5.1,5.1,0,0,0,7.27,0,5,5,0,0,1,7.07-.21c1.92,1.92,3.49-1,3.49-6.52V13.61a10,10,0,0,0-10-10h-8.74a10,10,0,0,0-10,10v117.2C157.75,136.31,159.38,139.29,161.37,137.43Z" transform="translate(-4.15)"/><path class="cls-3" d="M161.37,137.43a5.31,5.31,0,0,1,7.29.3,5.1,5.1,0,0,0,7.27,0,5,5,0,0,1,7.07-.21c1.92,1.92,3.49-1,3.49-6.52V13.61a10,10,0,0,0-10-10h-8.74a10,10,0,0,0-10,10v117.2C157.75,136.31,159.38,139.29,161.37,137.43Z" transform="translate(-4.15)"/><path class="cls-7" d="M181.73,143.82c-1.72-1.72-4.75-1.47-6.72.57a5.13,5.13,0,0,1-7.31,0c-2.06-2.05-5.22-2.34-7-.65s-1.12,7,1.55,11.82l1.67,3c2.66,4.81,5.7,9.18,6.74,9.71s5.15-4.9,7.82-9.71L180,155.7C182.69,150.89,183.46,145.54,181.73,143.82Z" transform="translate(-4.15)"/><path class="cls-8" d="M182.11,143.82c-1.73-1.72-4.75-1.47-6.72.57a5.14,5.14,0,0,1-7.32,0c-2-2.05-5.21-2.34-7-.65s-1.71,4.82.21,7a17.86,17.86,0,0,0,9.36,4.68c3.21.43,8.65-2.78,10.77-4.77S183.83,145.54,182.11,143.82Z" transform="translate(-4.15)"/><path class="cls-3" d="M181.73,143.76C180,142,177,142.3,175,144.33a5.12,5.12,0,0,1-7.31,0c-2.06-2.05-5.22-2.34-7-.65s-1.12,7,1.55,11.82l1.67,3c2.66,4.81,5.7,9.18,6.74,9.71s5.15-4.9,7.82-9.71l1.57-2.85C182.69,150.83,183.46,145.48,181.73,143.76Z" transform="translate(-4.15)"/><path class="cls-9" d="M173.12,11.29h2.37a2,2,0,0,1,2.18,1.81V58.36" transform="translate(-4.15)"/></g></g></svg>